<svg width="18" height="26" viewBox="0 0 18 26" fill="none" xmlns="http://www.w3.org/2000/svg">
<path d="M8.75318 17.4053C10.1029 17.4039 11.397 16.8671 12.3514 15.9127C13.3058 14.9583 13.8426 13.6642 13.844 12.3145V5.52681C13.844 4.17665 13.3076 2.88179 12.3529 1.92709C11.3982 0.972383 10.1033 0.436035 8.75318 0.436035C7.40303 0.436035 6.10817 0.972383 5.15346 1.92709C4.19875 2.88179 3.66241 4.17665 3.66241 5.52681V12.3145C3.66381 13.6642 4.20061 14.9583 5.15501 15.9127C6.10941 16.8671 7.40346 17.4039 8.75318 17.4053ZM5.35933 5.52681C5.35933 4.62671 5.7169 3.76347 6.35337 3.127C6.98984 2.49053 7.85308 2.13296 8.75318 2.13296C9.65329 2.13296 10.5165 2.49053 11.153 3.127C11.7895 3.76347 12.147 4.62671 12.147 5.52681V12.3145C12.147 13.2146 11.7895 14.0779 11.153 14.7143C10.5165 15.3508 9.65329 15.7084 8.75318 15.7084C7.85308 15.7084 6.98984 15.3508 6.35337 14.7143C5.7169 14.0779 5.35933 13.2146 5.35933 12.3145V5.52681ZM9.60165 20.7567V24.193C9.60165 24.418 9.51226 24.6338 9.35314 24.7929C9.19402 24.9521 8.97821 25.0415 8.75318 25.0415C8.52816 25.0415 8.31235 24.9521 8.15323 24.7929C7.99411 24.6338 7.90472 24.418 7.90472 24.193V20.7567C5.81288 20.5439 3.87427 19.5629 2.46379 18.0035C1.0533 16.4442 0.271138 14.4172 0.268555 12.3145C0.268555 12.0895 0.357946 11.8737 0.517064 11.7146C0.676182 11.5554 0.891991 11.4661 1.11702 11.4661C1.34204 11.4661 1.55785 11.5554 1.71697 11.7146C1.87609 11.8737 1.96548 12.0895 1.96548 12.3145C1.96548 14.1147 2.68061 15.8412 3.95355 17.1141C5.22649 18.3871 6.95297 19.1022 8.75318 19.1022C10.5534 19.1022 12.2799 18.3871 13.5528 17.1141C14.8258 15.8412 15.5409 14.1147 15.5409 12.3145C15.5409 12.0895 15.6303 11.8737 15.7894 11.7146C15.9485 11.5554 16.1643 11.4661 16.3893 11.4661C16.6144 11.4661 16.8302 11.5554 16.9893 11.7146C17.1484 11.8737 17.2378 12.0895 17.2378 12.3145C17.2352 14.4172 16.4531 16.4442 15.0426 18.0035C13.6321 19.5629 11.6935 20.5439 9.60165 20.7567Z" fill="white"/>
</svg>
