<svg width="25" height="21" viewBox="0 0 25 21" fill="none" xmlns="http://www.w3.org/2000/svg">
<path d="M6.78628 3.72461C6.58264 4.04693 6.31094 4.32078 5.99024 4.52696C5.66954 4.73313 5.30761 4.86664 4.92985 4.91812C4.49996 4.97845 4.07233 5.04444 3.64697 5.11609C2.45573 5.31407 1.6084 6.36277 1.6084 7.56985V17.102C1.6084 17.7771 1.87657 18.4246 2.35393 18.9019C2.83128 19.3793 3.47871 19.6474 4.15379 19.6474H21.123C21.7981 19.6474 22.4456 19.3793 22.9229 18.9019C23.4003 18.4246 23.6684 17.7771 23.6684 17.102V7.56985C23.6684 6.36277 22.82 5.31407 21.6299 5.11609C21.203 5.04499 20.7754 4.979 20.347 4.91812C19.9694 4.86649 19.6077 4.73291 19.2872 4.52673C18.9667 4.32056 18.6952 4.04679 18.4917 3.72461L17.5618 2.23584C17.3531 1.89644 17.0656 1.61238 16.7237 1.40776C16.3818 1.20314 15.9956 1.084 15.5979 1.06044C13.6263 0.955033 11.6505 0.955033 9.67898 1.06044C9.28123 1.084 8.89504 1.20314 8.55316 1.40776C8.21127 1.61238 7.92378 1.89644 7.71507 2.23584L6.78628 3.72461Z" stroke="white" stroke-width="1.64036" stroke-linecap="round" stroke-linejoin="round"/>
<path d="M17.7294 11.1629C17.7294 12.5131 17.1931 13.8079 16.2384 14.7626C15.2836 15.7173 13.9888 16.2537 12.6386 16.2537C11.2885 16.2537 9.99361 15.7173 9.03891 14.7626C8.0842 13.8079 7.54785 12.5131 7.54785 11.1629C7.54785 9.81276 8.0842 8.5179 9.03891 7.5632C9.99361 6.60849 11.2885 6.07214 12.6386 6.07214C13.9888 6.07214 15.2836 6.60849 16.2384 7.5632C17.1931 8.5179 17.7294 9.81276 17.7294 11.1629ZM20.2748 8.61753H20.2838V8.62658H20.2748V8.61753Z" stroke="white" stroke-width="1.64036" stroke-linecap="round" stroke-linejoin="round"/>
</svg>
