<svg width="19" height="19" viewBox="0 0 19 19" fill="none" xmlns="http://www.w3.org/2000/svg">
<path fill-rule="evenodd" clip-rule="evenodd" d="M9.09067 0.223755C9.37999 0.223755 9.65746 0.338687 9.86204 0.543267C10.0666 0.747846 10.1816 1.02532 10.1816 1.31464V8.22355H17.0905C17.3798 8.22355 17.6573 8.33848 17.8618 8.54306C18.0664 8.74764 18.1813 9.02511 18.1813 9.31443C18.1813 9.60375 18.0664 9.88122 17.8618 10.0858C17.6573 10.2904 17.3798 10.4053 17.0905 10.4053H10.1816V17.3142C10.1816 17.6035 10.0666 17.881 9.86204 18.0856C9.65746 18.2902 9.37999 18.4051 9.09067 18.4051C8.80135 18.4051 8.52388 18.2902 8.3193 18.0856C8.11472 17.881 7.99979 17.6035 7.99979 17.3142V10.4053H1.09088C0.801561 10.4053 0.524091 10.2904 0.319512 10.0858C0.114932 9.88122 0 9.60375 0 9.31443C0 9.02511 0.114932 8.74764 0.319512 8.54306C0.524091 8.33848 0.801561 8.22355 1.09088 8.22355H7.99979V1.31464C7.99979 1.02532 8.11472 0.747846 8.3193 0.543267C8.52388 0.338687 8.80135 0.223755 9.09067 0.223755Z" fill="white"/>
</svg>
