<svg width="38" height="37" viewBox="0 0 38 37" fill="none" xmlns="http://www.w3.org/2000/svg">
<path d="M32.7813 26.8465C31.66 25.7168 28.9445 24.0682 27.6269 23.4037C25.9112 22.5395 25.77 22.4689 24.4214 23.4708C23.5218 24.1395 22.9238 24.7368 21.871 24.5123C20.8183 24.2877 18.5306 23.0218 16.5275 21.025C14.5244 19.0282 13.1849 16.6742 12.9597 15.625C12.7345 14.5757 13.3417 13.9847 14.004 13.0831C14.9374 11.8122 14.8668 11.6003 14.069 9.88459C13.4469 8.55011 11.7502 5.85998 10.6163 4.74439C9.40323 3.54618 9.40323 3.758 8.62161 4.0828C7.98525 4.35048 7.37477 4.67593 6.79783 5.05506C5.66811 5.80561 5.04112 6.42907 4.60265 7.36603C4.16418 8.30299 3.96719 10.4996 6.23156 14.6131C8.49593 18.7267 10.0846 20.8301 13.3728 24.1091C16.6609 27.3881 19.1894 29.1512 22.8857 31.2242C27.4582 33.7851 29.2121 33.2859 30.1519 32.8482C31.0916 32.4104 31.7179 31.789 32.4699 30.6593C32.85 30.0834 33.1761 29.4735 33.4443 28.8377C33.7698 28.0589 33.9816 28.0589 32.7813 26.8465Z" stroke="white" stroke-width="2.25943" stroke-miterlimit="10"/>
</svg>
