<svg width="26" height="26" viewBox="0 0 26 26" fill="none" xmlns="http://www.w3.org/2000/svg">
<path d="M0.979341 22.1924C0.198292 22.9734 0.198292 24.2398 0.979341 25.0208C1.76039 25.8019 3.02672 25.8019 3.80777 25.0208L0.979341 22.1924ZM25.6068 2.3934C25.6068 1.28883 24.7113 0.393398 23.6068 0.393398L5.60676 0.393398C4.50219 0.393398 3.60676 1.28883 3.60676 2.3934C3.60676 3.49797 4.50219 4.3934 5.60676 4.3934L21.6068 4.3934L21.6068 20.3934C21.6068 21.498 22.5022 22.3934 23.6068 22.3934C24.7113 22.3934 25.6068 21.498 25.6068 20.3934L25.6068 2.3934ZM3.80777 25.0208L25.021 3.80761L22.1925 0.979185L0.979341 22.1924L3.80777 25.0208Z" fill="white"/>
</svg>
