<svg width="25" height="24" viewBox="0 0 25 24" fill="none" xmlns="http://www.w3.org/2000/svg">
<path fill-rule="evenodd" clip-rule="evenodd" d="M8.5 7C8.5 5.93913 8.92143 4.92172 9.67157 4.17157C10.4217 3.42143 11.4391 3 12.5 3C13.5609 3 14.5783 3.42143 15.3284 4.17157C16.0786 4.92172 16.5 5.93913 16.5 7C16.5 8.06087 16.0786 9.07828 15.3284 9.82843C14.5783 10.5786 13.5609 11 12.5 11C11.4391 11 10.4217 10.5786 9.67157 9.82843C8.92143 9.07828 8.5 8.06087 8.5 7ZM8.5 13C7.17392 13 5.90215 13.5268 4.96447 14.4645C4.02678 15.4021 3.5 16.6739 3.5 18C3.5 18.7956 3.81607 19.5587 4.37868 20.1213C4.94129 20.6839 5.70435 21 6.5 21H18.5C19.2956 21 20.0587 20.6839 20.6213 20.1213C21.1839 19.5587 21.5 18.7956 21.5 18C21.5 16.6739 20.9732 15.4021 20.0355 14.4645C19.0979 13.5268 17.8261 13 16.5 13H8.5Z" fill="white"/>
</svg>
