<svg width="21" height="18" viewBox="0 0 21 18" fill="none" xmlns="http://www.w3.org/2000/svg">
<path d="M15.5644 5.40688C15.826 6.19698 15.9583 7.02417 15.956 7.85647C15.956 11.4648 13.5433 14.3896 10.5664 14.3896M10.5664 14.3896C7.58953 14.3896 5.17677 11.4648 5.17677 7.85647C5.17451 7.02417 5.30676 6.19698 5.56842 5.40688M10.5664 14.3896C8.93334 14.3896 8.32072 17.0844 8.32072 17.0844M10.5664 14.3896C12.1995 14.3896 12.8121 17.0844 12.8121 17.0844M4.70967 2.91867C4.44738 4.41519 5.62591 5.40688 5.62591 5.40688C5.62591 5.40688 7.06584 4.90116 7.32813 3.40374C7.59043 1.90722 6.41189 0.915527 6.41189 0.915527C6.41189 0.915527 4.97197 1.42125 4.70967 2.91867Z" stroke="url(#paint0_linear_286_372)" stroke-width="1.79654" stroke-linecap="round" stroke-linejoin="round"/>
<path d="M2.3972 9.12573C3.54788 10.2629 5.10638 9.80841 5.10638 9.80841C5.10638 9.80841 5.5142 8.21668 4.36261 7.07767C3.21283 5.94046 1.65343 6.39498 1.65343 6.39498C1.65343 6.39498 1.24561 7.98672 2.3972 9.12573ZM5.41539 15.1316C6.7628 14.6151 6.97299 13.1644 6.97299 13.1644C6.97299 13.1644 5.83488 12.2319 4.48747 12.7494C3.14007 13.2659 2.93077 14.7166 2.93077 14.7166C2.93077 14.7166 4.06798 15.649 5.41539 15.1316ZM15.7159 15.1316C14.3685 14.6151 14.1592 13.1644 14.1592 13.1644C14.1592 13.1644 15.2973 12.2319 16.6447 12.7494C17.9921 13.2659 18.2014 14.7166 18.2014 14.7166C18.2014 14.7166 17.0633 15.649 15.7159 15.1316ZM18.735 9.12573C17.5843 10.2629 16.0258 9.80841 16.0258 9.80841C16.0258 9.80841 15.618 8.21668 16.7695 7.07767C17.9202 5.94135 19.4787 6.39498 19.4787 6.39498C19.4787 6.39498 19.8865 7.98672 18.735 9.12573ZM16.4228 2.91867C16.6851 4.41519 15.5066 5.40688 15.5066 5.40688C15.5066 5.40688 14.0666 4.90116 13.8043 3.40374C13.542 1.90722 14.7206 0.915527 14.7206 0.915527C14.7206 0.915527 16.1605 1.42125 16.4228 2.91867Z" stroke="url(#paint1_linear_286_372)" stroke-width="1.79654" stroke-linecap="round" stroke-linejoin="round"/>
<defs>
<linearGradient id="paint0_linear_286_372" x1="10.3138" y1="0.915527" x2="10.3138" y2="17.0844" gradientUnits="userSpaceOnUse">
<stop stop-color="#4DD080"/>
<stop offset="1" stop-color="#05847E"/>
</linearGradient>
<linearGradient id="paint1_linear_286_372" x1="10.5661" y1="0.915527" x2="10.5661" y2="15.2879" gradientUnits="userSpaceOnUse">
<stop stop-color="#4DD080"/>
<stop offset="1" stop-color="#05847E"/>
</linearGradient>
</defs>
</svg>
