<svg width="134" height="134" viewBox="0 0 134 134" fill="none" xmlns="http://www.w3.org/2000/svg">
<path opacity="0.25" d="M122.71 34.7788L66.9966 67.0019L11.2832 34.7788C12.4317 32.8023 14.0619 31.1488 16.0219 29.9724L60.2271 4.4512C64.4242 2.08186 69.5691 2.08186 73.7662 4.4512L117.971 29.9724C119.935 31.1436 121.566 32.8021 122.71 34.7788Z" fill="#B78E43"/>
<path opacity="0.5" d="M67.0002 67.0013V131.312C64.8661 131.307 62.7606 130.821 60.8399 129.89L16.2285 104.098C14.1724 102.911 12.4645 101.204 11.2763 99.1488C10.0882 97.0932 9.46142 94.7614 9.45898 92.3871V41.6154C9.47016 39.2171 10.0997 36.8622 11.2868 34.7782L67.0002 67.0013Z" fill="#F5CC80"/>
<path d="M124.541 41.6154V92.3871C124.539 94.7614 123.912 97.0932 122.724 99.1488C121.536 101.204 119.828 102.911 117.772 104.098L72.9572 129.958C71.0956 130.838 69.0579 131.298 67 131.312V67.0013L122.713 34.7782C123.898 36.8632 124.528 39.219 124.541 41.6154Z" fill="#B78E43"/>
</svg>
