<svg width="19" height="18" viewBox="0 0 19 18" fill="none" xmlns="http://www.w3.org/2000/svg">
<path fill-rule="evenodd" clip-rule="evenodd" d="M9.81934 0C10.1058 0 10.3805 0.113785 10.583 0.316325C10.7856 0.518864 10.8993 0.793566 10.8993 1.08V7.92H17.7393C18.0258 7.92 18.3005 8.03379 18.503 8.23633C18.7056 8.43886 18.8193 8.71357 18.8193 9C18.8193 9.28643 18.7056 9.56114 18.503 9.76367C18.3005 9.96621 18.0258 10.08 17.7393 10.08H10.8993V16.92C10.8993 17.2064 10.7856 17.4811 10.583 17.6837C10.3805 17.8862 10.1058 18 9.81934 18C9.5329 18 9.2582 17.8862 9.05566 17.6837C8.85312 17.4811 8.73934 17.2064 8.73934 16.92V10.08H1.89934C1.6129 10.08 1.3382 9.96621 1.13566 9.76367C0.933121 9.56114 0.819336 9.28643 0.819336 9C0.819336 8.71357 0.933121 8.43886 1.13566 8.23633C1.3382 8.03379 1.6129 7.92 1.89934 7.92H8.73934V1.08C8.73934 0.793566 8.85312 0.518864 9.05566 0.316325C9.2582 0.113785 9.5329 0 9.81934 0Z" fill="#001F1F"/>
</svg>
