<svg width="228" height="97" viewBox="0 0 228 97" fill="none" xmlns="http://www.w3.org/2000/svg">
<path d="M155 31.709C174.938 31.709 194.338 25.2429 210.29 13.281L228 0L227.716 97L210.23 83.7985C194.322 71.7884 174.933 65.291 155 65.291V31.709Z" fill="url(#paint0_linear_283_339)"/>
<path d="M73 65.291C53.0619 65.291 33.6616 71.7572 17.7104 83.719L0 97L0.284171 6.35702e-06L17.7702 13.2015C33.6781 25.2116 53.0675 31.709 73 31.709L73 65.291Z" fill="url(#paint1_linear_283_339)"/>
<path d="M94.5557 18.7515C91.7495 19.6563 89.5537 20.6499 86.8482 22.6352C86.4974 22.9701 86.1535 23.3122 85.8168 23.6612C85.8552 23.7519 85.9145 23.8638 86.0021 24.0216C86.1648 24.315 86.4453 24.6659 86.7981 25.0129C86.2574 25.8808 85.7498 26.7689 85.2766 27.6754C84.6898 27.1885 84.1632 26.6467 83.7401 26.0386C82.5131 27.5681 81.4181 29.199 80.4668 30.9137C80.53 31.1757 80.7161 31.4615 81.0722 31.8442C81.4975 32.3012 82.162 32.7731 82.9341 33.1758C82.61 34.1554 82.332 35.1303 82.1036 36.1034C80.912 35.5621 79.8221 34.8593 78.9655 33.9665C77.9997 36.2128 77.2798 38.557 76.8184 40.9582C77.0322 41.3481 77.4132 41.705 77.9895 42.0845C78.8018 42.6194 79.969 43.0576 81.2378 43.3108C81.2306 44.3417 81.2778 45.3643 81.3678 46.3736C79.5409 46.1057 77.7795 45.5331 76.3429 44.5869C76.3349 44.5815 76.3259 44.5773 76.3179 44.5718C76.1128 47.0218 76.1715 49.4866 76.493 51.924C76.8629 52.4813 77.4821 52.878 78.4048 53.1953C79.5909 53.6031 81.203 53.7309 82.8443 53.5656C83.1646 54.5461 83.529 55.5083 83.935 56.4484C81.6976 56.7844 79.4126 56.7082 77.4337 56.028C77.3798 56.0094 77.3272 55.9876 77.2736 55.9679C77.907 58.431 78.8118 60.8162 79.9713 63.0798C80.5403 63.5289 81.3086 63.755 82.3288 63.8255C83.8182 63.9286 85.7151 63.5484 87.5239 62.8096C88.117 63.6496 88.7448 64.4644 89.4057 65.252C87.0723 66.3275 84.5434 66.9617 82.1886 66.8135C83.7828 69.1548 85.6568 71.2927 87.7691 73.1798C88.4514 73.4113 89.2586 73.4144 90.2313 73.2246C91.7688 72.9246 93.5714 72.0388 95.201 70.8223C95.2023 70.8231 95.2052 70.8215 95.2061 70.8223C96.0294 71.4586 96.8793 72.0597 97.7536 72.624C95.8355 74.2112 93.6496 75.4581 91.4226 76.0225C93.3041 77.2957 95.3075 78.3787 97.4033 79.2554C98.194 79.3232 99.0513 79.1017 100.021 78.6299C101.25 78.0317 102.548 76.988 103.709 75.7022C106.438 76.7886 109.272 77.4992 112.128 77.769L112.413 74.7861C110.128 74.5699 107.835 74.0222 105.596 73.1945C106.698 71.4155 107.456 69.4832 107.669 67.8393C107.857 66.3797 107.682 65.2517 107.063 64.4059C105.769 64.1529 104.518 63.7749 103.319 63.2848C103.292 64.321 103.046 65.3648 102.643 66.3428C102.044 67.8008 101.119 69.1933 99.9959 70.4621C99.1351 69.9324 98.2985 69.3647 97.4883 68.7604C98.5486 67.6102 99.3979 66.3629 99.8756 65.2017C100.485 63.7209 100.544 62.5467 99.9757 61.5486C98.7348 60.7547 97.5729 59.829 96.4975 58.7907C96.2135 59.4794 95.8269 60.1312 95.3712 60.7276C94.4942 61.8751 93.3578 62.8913 92.0779 63.7554C91.4181 62.9994 90.7884 62.2174 90.1961 61.403C91.3415 60.6512 92.3255 59.7854 92.994 58.9106C93.8009 57.8546 94.1504 56.9231 94.0299 56.0128C93.2238 54.949 92.5009 53.8245 91.8678 52.6495C91.5014 53.0805 91.0903 53.4715 90.6415 53.8159C89.5592 54.6447 88.2715 55.2821 86.8929 55.7426C86.4773 54.8313 86.099 53.9011 85.7718 52.9499C86.9613 52.5648 88.0348 52.0398 88.8196 51.4385C89.7318 50.7399 90.2293 50.07 90.3462 49.3165C89.8552 48.0171 89.4588 46.6839 89.1601 45.3273C88.861 45.4996 88.5499 45.6501 88.2292 45.7778C87.0361 46.2498 85.7068 46.488 84.3406 46.5386C84.2326 45.5428 84.1773 44.542 84.1752 43.5404C85.2894 43.4983 86.3315 43.3103 87.1285 42.9951C87.8652 42.7036 88.3449 42.3865 88.6248 41.9941C88.4577 40.4083 88.4141 38.8119 88.4946 37.2194C88.3905 37.236 88.288 37.2482 88.1842 37.2594C87.1234 37.3755 86.0131 37.2835 84.9161 37.0443C85.1355 36.0866 85.4078 35.1209 85.7319 34.1514C86.5119 34.3009 87.2595 34.3473 87.8588 34.2818C88.2774 34.236 88.5846 34.1607 88.8197 34.0566C89.0397 32.6461 89.3592 31.2529 89.7759 29.8874C89.1061 29.7696 88.4491 29.5524 87.8139 29.2668C88.278 28.3717 88.7772 27.4952 89.3104 26.6395C89.6971 26.7937 90.0657 26.9061 90.3814 26.955C90.5587 26.9822 90.7054 26.9974 90.827 26.9998C91.1386 26.2567 91.4711 25.5312 91.8331 24.8276C92.7777 22.9375 93.8214 20.9438 94.5557 18.7518V18.7515ZM133.694 18.7515C134.428 20.9434 135.472 22.9371 136.417 24.8275C136.782 25.538 137.119 26.2626 137.427 26.9995C137.548 26.9969 137.693 26.9814 137.868 26.9547C138.185 26.9057 138.556 26.7945 138.944 26.6392C139.477 27.4949 139.976 28.3715 140.44 29.2667C139.804 29.5527 139.144 29.7696 138.474 29.8874C138.884 31.2312 139.206 32.6261 139.429 34.0563C139.665 34.1617 139.974 34.2357 140.395 34.2818C140.995 34.3475 141.742 34.301 142.522 34.1516C142.84 35.1039 143.11 36.071 143.333 37.0496C142.238 37.2878 141.129 37.3757 140.07 37.2599C139.965 37.2491 139.86 37.2358 139.755 37.2199C139.837 38.8122 139.795 40.4086 139.63 41.9945C139.91 42.3868 140.39 42.7039 141.126 42.9954C141.922 43.3101 142.962 43.4983 144.074 43.5409C144.072 44.5425 144.017 45.5433 143.909 46.539C142.545 46.4878 141.217 46.2495 140.026 45.7783C139.705 45.6501 139.394 45.4995 139.095 45.3276C138.796 46.6824 138.399 48.0138 137.908 49.3115C138.023 50.0674 138.516 50.7388 139.43 51.4387C140.215 52.0398 141.289 52.5646 142.478 52.9499C142.151 53.9013 141.773 54.8313 141.357 55.7427C139.98 55.2823 138.695 54.6438 137.613 53.8161C137.163 53.4719 136.75 53.0809 136.382 52.6497C135.74 53.8383 135.018 54.9629 134.22 56.0129C134.098 56.9229 134.449 57.855 135.256 58.911C135.924 59.7849 136.908 60.6519 138.054 61.4035C137.462 62.2179 136.832 62.9996 136.172 63.7557C134.892 62.8915 133.756 61.8755 132.879 60.7278C132.424 60.1328 132.04 59.4821 131.758 58.7956C130.683 59.8331 129.519 60.7553 128.279 61.5484C127.711 62.5467 127.77 63.7209 128.379 65.2019C128.857 66.363 129.707 67.6102 130.767 68.7606C129.955 69.3649 129.117 69.9326 128.254 70.4621C127.133 69.1933 126.212 67.8008 125.612 66.3428C125.209 65.3649 124.964 64.3212 124.936 63.2851C123.726 63.7799 122.47 64.1554 121.187 64.4062C120.567 65.2519 120.393 66.38 120.582 67.8395C120.795 69.4834 121.556 71.4158 122.659 73.1948C120.421 74.0225 118.128 74.5701 115.842 74.7863L116.123 77.7692C118.98 77.499 121.815 76.7897 124.546 75.7022C125.707 76.988 127.005 78.0317 128.234 78.6299C129.204 79.1019 130.061 79.3234 130.852 79.2554C132.948 78.3786 134.951 77.2956 136.832 76.0224C134.607 75.4586 132.418 74.2137 130.502 72.6287C131.373 72.0675 132.222 71.4606 133.049 70.8221C134.679 72.0399 136.485 72.9243 138.024 73.2244C138.994 73.4137 139.8 73.4142 140.481 73.1844C142.595 71.296 144.471 69.1565 146.067 66.8134C143.712 66.9615 141.178 66.3273 138.844 65.2519C139.504 64.465 140.136 63.6519 140.731 62.8095C142.54 63.5478 144.437 63.9283 145.926 63.8252C146.946 63.7547 147.715 63.5286 148.284 63.0795C149.443 60.8159 150.348 58.4307 150.981 55.9676C150.928 55.9873 150.875 56.0092 150.821 56.0277C148.842 56.7078 146.557 56.7841 144.32 56.4481C144.727 55.5044 145.092 54.5424 145.411 53.5653C147.05 53.7297 148.66 53.6021 149.845 53.1948C150.768 52.8777 151.391 52.4813 151.762 51.9237C152.082 49.4861 152.139 47.0213 151.932 44.5715C151.925 44.576 151.919 44.5819 151.912 44.5866C150.476 45.5328 148.714 46.1053 146.887 46.3733C146.977 45.364 147.024 44.3414 147.017 43.3103C148.286 43.0569 149.453 42.6189 150.265 42.084C150.841 41.705 151.218 41.3466 151.432 40.9578C150.97 38.5566 150.25 36.2125 149.284 33.9661C148.428 34.8582 147.341 35.5613 146.151 36.1033C145.918 35.1154 145.641 34.1384 145.32 33.1753C146.09 32.7728 146.753 32.3002 147.177 31.8439C147.532 31.4634 147.722 31.1793 147.788 30.9182C146.837 29.2019 145.742 27.5693 144.514 26.0382C144.091 26.6462 143.565 27.1882 142.978 27.675C142.505 26.7686 141.997 25.8804 141.457 25.0123C141.81 24.6654 142.09 24.314 142.252 24.0209C142.339 23.8656 142.4 23.7557 142.437 23.6657C142.099 23.315 141.754 22.9713 141.402 22.6348C138.696 20.6495 136.5 19.6559 133.694 18.751L133.694 18.7515ZM97.4731 28.5111L101.332 49.2862H127.613L131.281 29.3468L122.002 39.5167L114.8 28.7564L107.593 39.5168L97.4734 28.5112L97.4731 28.5111ZM101.888 52.2792L102.458 55.3569H126.497L127.062 52.279H101.888L101.888 52.2792Z" fill="url(#paint2_linear_283_339)"/>
<defs>
<linearGradient id="paint0_linear_283_339" x1="155" y1="48.5" x2="231.252" y2="48.5" gradientUnits="userSpaceOnUse">
<stop stop-color="#D3B71B"/>
<stop offset="0.505" stop-color="#C65A17"/>
<stop offset="1" stop-color="#C65A17" stop-opacity="0"/>
</linearGradient>
<linearGradient id="paint1_linear_283_339" x1="73" y1="48.5" x2="-3.2523" y2="48.5" gradientUnits="userSpaceOnUse">
<stop stop-color="#D3B71B"/>
<stop offset="0.505" stop-color="#C65A17"/>
<stop offset="1" stop-color="#C65A17" stop-opacity="0"/>
</linearGradient>
<linearGradient id="paint2_linear_283_339" x1="114.126" y1="18.751" x2="114.126" y2="79.2675" gradientUnits="userSpaceOnUse">
<stop stop-color="#D3B71B"/>
<stop offset="1" stop-color="#C65A17"/>
</linearGradient>
</defs>
</svg>
