<svg width="238" height="83" viewBox="0 0 238 83" fill="none" xmlns="http://www.w3.org/2000/svg">
<path d="M160.284 18.0587H167.72C179.556 18.0587 191.375 17.151 203.072 15.3434L237.449 10.0312V73.3067L203.072 67.9945C191.375 66.187 179.556 65.2792 167.72 65.2792H160.284V18.0587Z" fill="url(#paint0_linear_283_363)"/>
<path d="M77.7168 64.5072L69.9515 64.5072C58.0018 64.5072 46.07 65.4324 34.2631 67.2747L0.551582 72.5347L0.551577 9.2592L34.2631 14.5192C46.07 16.3614 58.0018 17.2867 69.9515 17.2867L77.7168 17.2867L77.7168 64.5072Z" fill="url(#paint1_linear_283_363)"/>
<path d="M99.8585 27.5227C98.8564 30.5487 98.3498 33.7167 98.3585 36.9043C98.3585 50.724 107.599 61.9255 119 61.9255M119 61.9255C130.401 61.9255 139.642 50.724 139.642 36.9043C139.651 33.7167 139.144 30.5487 138.142 27.5227M119 61.9255C125.255 61.9255 127.601 72.2464 127.601 72.2464M119 61.9255C112.746 61.9255 110.399 72.2464 110.399 72.2464M141.431 17.9931C142.435 23.7246 137.922 27.5227 137.922 27.5227C137.922 27.5227 132.407 25.5858 131.402 19.8509C130.398 14.1194 134.912 10.3213 134.912 10.3213C134.912 10.3213 140.426 12.2582 141.431 17.9931Z" stroke="url(#paint2_linear_283_363)" stroke-width="6.88056" stroke-linecap="round" stroke-linejoin="round"/>
<path d="M150.287 41.7655C145.88 46.1209 139.911 44.3801 139.911 44.3801C139.911 44.3801 138.349 38.2839 142.759 33.9216C147.163 29.5662 153.135 31.307 153.135 31.307C153.135 31.307 154.697 37.4032 150.287 41.7655ZM138.727 64.7672C133.567 62.789 132.762 57.233 132.762 57.233C132.762 57.233 137.121 53.662 142.281 55.6436C147.441 57.6217 148.243 63.1778 148.243 63.1778C148.243 63.1778 143.888 66.7488 138.727 64.7672ZM99.2775 64.7672C104.438 62.789 105.24 57.233 105.24 57.233C105.24 57.233 100.881 53.662 95.7202 55.6436C90.5598 57.6217 89.7582 63.1778 89.7582 63.1778C89.7582 63.1778 94.1171 66.7488 99.2775 64.7672ZM87.7147 41.7655C92.1217 46.1209 98.0906 44.3801 98.0906 44.3801C98.0906 44.3801 99.6525 38.2839 95.242 33.9216C90.835 29.5697 84.8661 31.307 84.8661 31.307C84.8661 31.307 83.3043 37.4032 87.7147 41.7655ZM96.57 17.9931C95.5654 23.7246 100.079 27.5227 100.079 27.5227C100.079 27.5227 105.594 25.5858 106.598 19.8509C107.603 14.1194 103.089 10.3213 103.089 10.3213C103.089 10.3213 97.5746 12.2582 96.57 17.9931Z" stroke="url(#paint3_linear_283_363)" stroke-width="6.88056" stroke-linecap="round" stroke-linejoin="round"/>
<defs>
<linearGradient id="paint0_linear_283_363" x1="160.284" y1="41.669" x2="237.449" y2="41.669" gradientUnits="userSpaceOnUse">
<stop stop-color="#4DD080"/>
<stop offset="0.505" stop-color="#05847E"/>
<stop offset="1" stop-color="#05847E" stop-opacity="0"/>
</linearGradient>
<linearGradient id="paint1_linear_283_363" x1="77.7168" y1="40.8969" x2="0.55158" y2="40.8969" gradientUnits="userSpaceOnUse">
<stop stop-color="#4DD080"/>
<stop offset="0.505" stop-color="#05847E"/>
<stop offset="1" stop-color="#05847E" stop-opacity="0"/>
</linearGradient>
<linearGradient id="paint2_linear_283_363" x1="119.968" y1="10.3213" x2="119.968" y2="72.2464" gradientUnits="userSpaceOnUse">
<stop stop-color="#4DD080"/>
<stop offset="1" stop-color="#05847E"/>
</linearGradient>
<linearGradient id="paint3_linear_283_363" x1="119.001" y1="10.3213" x2="119.001" y2="65.3661" gradientUnits="userSpaceOnUse">
<stop stop-color="#4DD080"/>
<stop offset="1" stop-color="#05847E"/>
</linearGradient>
</defs>
</svg>
