<svg width="150" height="150" viewBox="0 0 150 150" fill="none" xmlns="http://www.w3.org/2000/svg">
<path d="M107.141 149.375H42.8594C25.3812 149.375 11.25 135.244 11.25 117.766V53.9094C11.25 36.2187 25.5937 21.875 43.2844 21.875H106.769C124.406 21.875 138.75 36.2187 138.75 53.9094V117.819C138.75 135.244 124.619 149.375 107.141 149.375Z" fill="url(#paint0_radial_206_1097)"/>
<path d="M11.25 53.75C11.25 45.2962 14.6083 37.1887 20.586 31.211C26.5637 25.2333 34.6712 21.875 43.125 21.875H53.75V149.375H43.125C34.6712 149.375 26.5637 146.017 20.586 140.039C14.6083 134.061 11.25 125.954 11.25 117.5V53.75Z" fill="url(#paint1_linear_206_1097)"/>
<path d="M11.25 117.5H138.75C138.75 125.954 135.392 134.061 129.414 140.039C123.436 146.017 115.329 149.375 106.875 149.375H43.125C34.6712 149.375 26.5637 146.017 20.586 140.039C14.6083 134.061 11.25 125.954 11.25 117.5Z" fill="url(#paint2_linear_206_1097)"/>
<path d="M96.25 21.875H106.875C115.329 21.875 123.436 25.2333 129.414 31.211C135.392 37.1887 138.75 45.2962 138.75 53.75V117.5C138.75 125.954 135.392 134.061 129.414 140.039C123.436 146.017 115.329 149.375 106.875 149.375H96.25V21.875Z" fill="url(#paint3_radial_206_1097)"/>
<path d="M8.59375 10.9841V59.3279" stroke="url(#paint4_linear_206_1097)" stroke-width="5.3125" stroke-miterlimit="10"/>
<path d="M11.25 53.75V112.188C5.40625 112.188 0.625 107.406 0.625 101.573V64.3644C0.625 58.5313 5.40625 53.75 11.25 53.75Z" fill="url(#paint5_linear_206_1097)"/>
<path d="M110.875 88.2812H39.1247C33.1424 88.2672 27.4093 85.8834 23.1807 81.6518C18.952 77.4202 16.5723 71.6854 16.5625 65.7031C16.5723 59.7208 18.952 53.9861 23.1807 49.7545C27.4093 45.5228 33.1424 43.139 39.1247 43.125H110.875C116.858 43.139 122.591 45.5228 126.819 49.7545C131.048 53.9861 133.428 59.7208 133.438 65.7031C133.438 78.0866 123.248 88.2812 110.875 88.2812Z" fill="url(#paint6_linear_206_1097)"/>
<path d="M88.43 128.125H61.57C57.2563 128.125 53.75 124.544 53.75 120.156C53.75 115.768 57.2563 112.188 61.57 112.188H88.43C92.7384 112.188 96.25 115.768 96.25 120.156C96.25 124.544 92.7437 128.125 88.43 128.125Z" fill="url(#paint7_linear_206_1097)"/>
<path d="M8.59375 16.5625C9.64022 16.5625 10.6764 16.3564 11.6433 15.9559C12.6101 15.5554 13.4885 14.9685 14.2285 14.2285C14.9685 13.4885 15.5554 12.6101 15.9559 11.6433C16.3564 10.6764 16.5625 9.64022 16.5625 8.59375C16.5625 7.54728 16.3564 6.51105 15.9559 5.54424C15.5554 4.57743 14.9685 3.69896 14.2285 2.95899C13.4885 2.21903 12.6101 1.63205 11.6433 1.23159C10.6764 0.831118 9.64022 0.625 8.59375 0.625C6.48031 0.625 4.45342 1.46456 2.95899 2.95899C1.46456 4.45342 0.625 6.48031 0.625 8.59375C0.625 10.7072 1.46456 12.7341 2.95899 14.2285C4.45342 15.7229 6.48031 16.5625 8.59375 16.5625Z" fill="url(#paint8_radial_206_1097)"/>
<path d="M141.406 11.25V59.5406" stroke="url(#paint9_linear_206_1097)" stroke-width="5.3125" stroke-miterlimit="10"/>
<path d="M141.407 17.0938C143.591 17.0938 145.686 16.2262 147.23 14.682C148.774 13.1377 149.642 11.0433 149.642 8.85938C149.642 6.67548 148.774 4.58104 147.23 3.03679C145.686 1.49255 143.591 0.625 141.407 0.625C139.223 0.625 137.129 1.49255 135.585 3.03679C134.04 4.58104 133.173 6.67548 133.173 8.85938C133.173 11.0433 134.04 13.1377 135.585 14.682C137.129 16.2262 139.223 17.0938 141.407 17.0938Z" fill="url(#paint10_radial_206_1097)"/>
<path d="M40.4688 53.75H37.8125C31.9445 53.75 27.1875 58.507 27.1875 64.375V75C27.1875 80.868 31.9445 85.625 37.8125 85.625H40.4688C46.3368 85.625 51.0938 80.868 51.0938 75V64.375C51.0938 58.507 46.3368 53.75 40.4688 53.75Z" fill="url(#paint11_radial_206_1097)"/>
<path d="M101.562 53.75H98.9062C93.0382 53.75 88.2812 58.507 88.2812 64.375V75C88.2812 80.868 93.0382 85.625 98.9062 85.625H101.562C107.431 85.625 112.188 80.868 112.188 75V64.375C112.188 58.507 107.431 53.75 101.562 53.75Z" fill="url(#paint12_radial_206_1097)"/>
<path d="M93.5938 5.9375H56.4062C52.0052 5.9375 48.4375 9.50523 48.4375 13.9062C48.4375 18.3073 52.0052 21.875 56.4062 21.875H93.5938C97.9948 21.875 101.562 18.3073 101.562 13.9062C101.562 9.50523 97.9948 5.9375 93.5938 5.9375Z" fill="url(#paint13_linear_206_1097)"/>
<path d="M93.5938 5.9375H56.4062C52.0052 5.9375 48.4375 9.50523 48.4375 13.9062C48.4375 18.3073 52.0052 21.875 56.4062 21.875H93.5938C97.9948 21.875 101.562 18.3073 101.562 13.9062C101.562 9.50523 97.9948 5.9375 93.5938 5.9375Z" fill="url(#paint14_radial_206_1097)"/>
<path d="M138.75 111.869V53.3784C144.594 53.3784 149.375 58.1597 149.375 64.0034V101.244C149.375 107.088 144.594 111.869 138.75 111.869Z" fill="url(#paint15_linear_206_1097)"/>
<path d="M51.0938 60.3906C51.0938 56.7231 48.1206 53.75 44.4531 53.75C40.7856 53.75 37.8125 56.7231 37.8125 60.3906V73.6719C37.8125 77.3394 40.7856 80.3125 44.4531 80.3125C48.1206 80.3125 51.0938 77.3394 51.0938 73.6719V60.3906Z" fill="url(#paint16_linear_206_1097)"/>
<path d="M51.0938 60.3906C51.0938 56.7231 48.1206 53.75 44.4531 53.75C40.7856 53.75 37.8125 56.7231 37.8125 60.3906V73.6719C37.8125 77.3394 40.7856 80.3125 44.4531 80.3125C48.1206 80.3125 51.0938 77.3394 51.0938 73.6719V60.3906Z" fill="url(#paint17_radial_206_1097)"/>
<path d="M112.188 60.3906C112.188 56.7231 109.214 53.75 105.547 53.75C101.879 53.75 98.9062 56.7231 98.9062 60.3906V73.6719C98.9062 77.3394 101.879 80.3125 105.547 80.3125C109.214 80.3125 112.188 77.3394 112.188 73.6719V60.3906Z" fill="url(#paint18_linear_206_1097)"/>
<path d="M112.188 60.3906C112.188 56.7231 109.214 53.75 105.547 53.75C101.879 53.75 98.9062 56.7231 98.9062 60.3906V73.6719C98.9062 77.3394 101.879 80.3125 105.547 80.3125C109.214 80.3125 112.188 77.3394 112.188 73.6719V60.3906Z" fill="url(#paint19_radial_206_1097)"/>
<g filter="url(#filter0_f_206_1097)">
<path d="M9.25781 16.5625V48.4375" stroke="url(#paint20_linear_206_1097)" stroke-width="1.32812"/>
</g>
<g filter="url(#filter1_f_206_1097)">
<path d="M142.07 16.5625V48.4375" stroke="url(#paint21_linear_206_1097)" stroke-width="1.32812"/>
</g>
<path d="M144.062 69.6875C146.997 69.6875 149.375 66.1198 149.375 61.7188C149.375 57.3177 146.997 53.75 144.062 53.75C141.128 53.75 138.75 57.3177 138.75 61.7188C138.75 66.1198 141.128 69.6875 144.062 69.6875Z" fill="url(#paint22_radial_206_1097)"/>
<path d="M144.062 101.562C146.997 101.562 149.375 90.8593 149.375 77.6562C149.375 64.4532 146.997 53.75 144.062 53.75C141.128 53.75 138.75 64.4532 138.75 77.6562C138.75 90.8593 141.128 101.562 144.062 101.562Z" fill="url(#paint23_radial_206_1097)"/>
<path fill-rule="evenodd" clip-rule="evenodd" d="M95.0614 6.07043C96.6425 6.36605 98.0971 7.1332 99.234 8.27104C100.371 9.40887 101.137 10.8641 101.431 12.4454C101.217 13.3688 100.76 14.2181 100.107 14.9052C99.454 15.5923 98.6291 16.0922 97.7179 16.3531C96.8066 16.6139 95.8422 16.6262 94.9245 16.3887C94.0069 16.1511 93.1696 15.6724 92.4994 15.0022C91.8291 14.332 91.3504 13.4946 91.1129 12.577C90.8753 11.6594 90.8876 10.6949 91.1485 9.78368C91.4093 8.87243 91.9093 8.04755 92.5964 7.39463C93.2835 6.7417 94.1381 6.28449 95.0614 6.07043Z" fill="url(#paint24_radial_206_1097)"/>
<defs>
<filter id="filter0_f_206_1097" x="5.9375" y="13.9062" width="6.64062" height="37.1875" filterUnits="userSpaceOnUse" color-interpolation-filters="sRGB">
<feFlood flood-opacity="0" result="BackgroundImageFix"/>
<feBlend mode="normal" in="SourceGraphic" in2="BackgroundImageFix" result="shape"/>
<feGaussianBlur stdDeviation="1.32812" result="effect1_foregroundBlur_206_1097"/>
</filter>
<filter id="filter1_f_206_1097" x="138.75" y="13.9062" width="6.64062" height="37.1875" filterUnits="userSpaceOnUse" color-interpolation-filters="sRGB">
<feFlood flood-opacity="0" result="BackgroundImageFix"/>
<feBlend mode="normal" in="SourceGraphic" in2="BackgroundImageFix" result="shape"/>
<feGaussianBlur stdDeviation="1.32812" result="effect1_foregroundBlur_206_1097"/>
</filter>
<radialGradient id="paint0_radial_206_1097" cx="0" cy="0" r="1" gradientUnits="userSpaceOnUse" gradientTransform="translate(122.811 51.0945) rotate(141.911) scale(124.872)">
<stop stop-color="#EEEBF0"/>
<stop offset="0.493" stop-color="#D1BEE3"/>
<stop offset="1" stop-color="#D0BCE2"/>
</radialGradient>
<linearGradient id="paint1_linear_206_1097" x1="53.75" y1="85.625" x2="11.25" y2="85.625" gradientUnits="userSpaceOnUse">
<stop stop-color="#D5B2C0" stop-opacity="0"/>
<stop offset="1" stop-color="#B4878D"/>
</linearGradient>
<linearGradient id="paint2_linear_206_1097" x1="75" y1="133.438" x2="75" y2="154.688" gradientUnits="userSpaceOnUse">
<stop stop-color="#B17EDB" stop-opacity="0"/>
<stop offset="1" stop-color="#A56BD6"/>
</linearGradient>
<radialGradient id="paint3_radial_206_1097" cx="0" cy="0" r="1" gradientUnits="userSpaceOnUse" gradientTransform="translate(122.812 61.7187) rotate(-5.71059) scale(26.695 102.034)">
<stop stop-color="#F0EAF6"/>
<stop offset="1" stop-color="#E7E0EF" stop-opacity="0"/>
</radialGradient>
<linearGradient id="paint4_linear_206_1097" x1="-nan" y1="-nan" x2="-nan" y2="-nan" gradientUnits="userSpaceOnUse">
<stop stop-color="#4EC832"/>
<stop offset="1" stop-color="#19B24E"/>
</linearGradient>
<linearGradient id="paint5_linear_206_1097" x1="5.9375" y1="53.75" x2="5.9375" y2="112.188" gradientUnits="userSpaceOnUse">
<stop stop-color="#4FC831"/>
<stop offset="1" stop-color="#19B24E"/>
</linearGradient>
<linearGradient id="paint6_linear_206_1097" x1="74.9894" y1="84.0366" x2="74.9894" y2="50.5147" gradientUnits="userSpaceOnUse">
<stop offset="0.006" stop-color="#443E75"/>
<stop offset="1" stop-color="#2F1A3B"/>
</linearGradient>
<linearGradient id="paint7_linear_206_1097" x1="74.9894" y1="126.457" x2="74.9894" y2="111.598" gradientUnits="userSpaceOnUse">
<stop offset="0.006" stop-color="#39325E"/>
<stop offset="1" stop-color="#2B1831"/>
</linearGradient>
<radialGradient id="paint8_radial_206_1097" cx="0" cy="0" r="1" gradientUnits="userSpaceOnUse" gradientTransform="translate(11.25 5.9375) rotate(104.036) scale(10.952)">
<stop stop-color="#24C9AE"/>
<stop offset="0.441" stop-color="#24C9AE"/>
<stop offset="1" stop-color="#4CE9A0"/>
</radialGradient>
<linearGradient id="paint9_linear_206_1097" x1="-nan" y1="-nan" x2="-nan" y2="-nan" gradientUnits="userSpaceOnUse">
<stop stop-color="#4EC832"/>
<stop offset="1" stop-color="#19B24E"/>
</linearGradient>
<radialGradient id="paint10_radial_206_1097" cx="0" cy="0" r="1" gradientUnits="userSpaceOnUse" gradientTransform="translate(144.149 6.11219) rotate(104.036) scale(11.3171 11.3171)">
<stop stop-color="#24C9AE"/>
<stop offset="0.441" stop-color="#24C9AE"/>
<stop offset="1" stop-color="#4CE9A0"/>
</radialGradient>
<radialGradient id="paint11_radial_206_1097" cx="0" cy="0" r="1" gradientUnits="userSpaceOnUse" gradientTransform="translate(40.4687 69.6875) rotate(168.69) scale(13.5443 18.5359)">
<stop stop-color="#322649"/>
<stop offset="1" stop-color="#342950" stop-opacity="0"/>
</radialGradient>
<radialGradient id="paint12_radial_206_1097" cx="0" cy="0" r="1" gradientUnits="userSpaceOnUse" gradientTransform="translate(101.562 69.6875) rotate(168.69) scale(13.5443 18.5359)">
<stop stop-color="#322649"/>
<stop offset="1" stop-color="#342950" stop-opacity="0"/>
</radialGradient>
<linearGradient id="paint13_linear_206_1097" x1="75" y1="5.9375" x2="67.0312" y2="24.5313" gradientUnits="userSpaceOnUse">
<stop stop-color="#FFCE2B"/>
<stop offset="1" stop-color="#D9862D"/>
</linearGradient>
<radialGradient id="paint14_radial_206_1097" cx="0" cy="0" r="1" gradientUnits="userSpaceOnUse" gradientTransform="translate(75 11.25) rotate(90) scale(15.9375 53.125)">
<stop offset="0.431" stop-color="#CA7E29" stop-opacity="0"/>
<stop offset="1" stop-color="#673F13"/>
</radialGradient>
<linearGradient id="paint15_linear_206_1097" x1="144.062" y1="53.3784" x2="144.062" y2="111.869" gradientUnits="userSpaceOnUse">
<stop stop-color="#4FC831"/>
<stop offset="1" stop-color="#19B24E"/>
</linearGradient>
<linearGradient id="paint16_linear_206_1097" x1="51.0938" y1="64.375" x2="37.8125" y2="64.375" gradientUnits="userSpaceOnUse">
<stop stop-color="#4FC831"/>
<stop offset="1" stop-color="#19B24E"/>
</linearGradient>
<radialGradient id="paint17_radial_206_1097" cx="0" cy="0" r="1" gradientUnits="userSpaceOnUse" gradientTransform="translate(48.4375 61.7187) rotate(90) scale(13.2812 6.07713)">
<stop stop-color="#54C8FF"/>
<stop offset="1" stop-color="#54C8FF" stop-opacity="0"/>
</radialGradient>
<linearGradient id="paint18_linear_206_1097" x1="112.188" y1="64.375" x2="98.9062" y2="64.375" gradientUnits="userSpaceOnUse">
<stop stop-color="#4FC831"/>
<stop offset="1" stop-color="#19B24E"/>
</linearGradient>
<radialGradient id="paint19_radial_206_1097" cx="0" cy="0" r="1" gradientUnits="userSpaceOnUse" gradientTransform="translate(109.531 61.7187) rotate(90) scale(13.2812 6.07713)">
<stop stop-color="#54C8FF"/>
<stop offset="1" stop-color="#54C8FF" stop-opacity="0"/>
</radialGradient>
<linearGradient id="paint20_linear_206_1097" x1="-nan" y1="-nan" x2="-nan" y2="-nan" gradientUnits="userSpaceOnUse">
<stop stop-color="#24C9AE"/>
<stop offset="1" stop-color="#24C9AE" stop-opacity="0.08"/>
</linearGradient>
<linearGradient id="paint21_linear_206_1097" x1="-nan" y1="-nan" x2="-nan" y2="-nan" gradientUnits="userSpaceOnUse">
<stop stop-color="#24C9AE"/>
<stop offset="1" stop-color="#24C9AE" stop-opacity="0.08"/>
</linearGradient>
<radialGradient id="paint22_radial_206_1097" cx="0" cy="0" r="1" gradientUnits="userSpaceOnUse" gradientTransform="translate(144.062 61.7188) rotate(90) scale(7.96875 5.3125)">
<stop stop-color="#24C9AE"/>
<stop offset="1" stop-color="#24C9AE" stop-opacity="0"/>
</radialGradient>
<radialGradient id="paint23_radial_206_1097" cx="0" cy="0" r="1" gradientUnits="userSpaceOnUse" gradientTransform="translate(144.062 77.6562) rotate(90) scale(23.9062 2.97202)">
<stop stop-color="#4CE9A0"/>
<stop offset="1" stop-color="#4CE9A0" stop-opacity="0"/>
</radialGradient>
<radialGradient id="paint24_radial_206_1097" cx="0" cy="0" r="1" gradientUnits="userSpaceOnUse" gradientTransform="translate(96.2514 11.2501) rotate(90) scale(5.3125)">
<stop stop-color="#FFEA60"/>
<stop offset="1" stop-color="#FFEF66" stop-opacity="0"/>
</radialGradient>
</defs>
</svg>
