<svg width="14" height="14" viewBox="0 0 14 14" fill="none" xmlns="http://www.w3.org/2000/svg">
<path fill-rule="evenodd" clip-rule="evenodd" d="M0.527057 0.803426C0.734788 0.606214 1.01653 0.495421 1.3103 0.495422C1.60408 0.495422 1.88582 0.606214 2.09355 0.803426L7.05412 5.51282L12.0147 0.803426C12.2224 0.606214 12.5042 0.495421 12.7979 0.495421C13.0917 0.49542 13.3734 0.606214 13.5812 0.803426C13.7889 1.00064 13.9056 1.26811 13.9056 1.54701C13.9056 1.82591 13.7889 2.09339 13.5812 2.2906L8.62061 7L13.5812 11.7094C13.7889 11.9066 13.9056 12.1741 13.9056 12.453C13.9056 12.7319 13.7889 12.9994 13.5812 13.1966C13.3734 13.3938 13.0917 13.5046 12.7979 13.5046C12.5042 13.5046 12.2224 13.3938 12.0147 13.1966L7.05412 8.48718L2.09355 13.1966C1.88582 13.3938 1.60408 13.5046 1.3103 13.5046C1.01653 13.5046 0.734788 13.3938 0.527058 13.1966C0.319328 12.9994 0.202626 12.7319 0.202627 12.453C0.202627 12.1741 0.319328 11.9066 0.527058 11.7094L5.48762 7L0.527058 2.2906C0.319328 2.09339 0.202626 1.82591 0.202626 1.54701C0.202626 1.26812 0.319328 1.00064 0.527057 0.803426Z" fill="#001F1F"/>
</svg>
